<svg width="1557" height="1642" viewBox="0 0 1557 1642" fill="none" xmlns="http://www.w3.org/2000/svg">
<path d="M607.901 386.302V430.815V455.815H632.901H876.099H901.099V430.815V118V93H876.099H598.162C373.282 93 191 275.376 191 500.326C191 725.276 373.282 907.652 598.162 907.652H910.838C973.646 907.652 1024.8 958.816 1024.8 1021.68C1024.8 1084.54 973.646 1135.7 910.838 1135.7H901.099V952.166V927.166H876.099H632.901H607.901V952.166V1404V1429H632.901H910.838C1135.72 1429 1318 1246.62 1318 1021.67C1318 796.723 1135.72 614.349 910.838 614.349L598.162 614.351C535.354 614.351 484.197 563.188 484.197 500.326C484.197 437.465 535.354 386.302 598.162 386.302H607.901Z" fill="none" stroke-width="50px" stroke="white" />
</svg>
